<?xml version="1.0" encoding="utf-8"?>
<!-- Generator: Adobe Illustrator 19.0.0, SVG Export Plug-In . SVG Version: 6.00 Build 0)  -->
<svg version="1.1" id="Layer_1" xmlns="http://www.w3.org/2000/svg" xmlns:xlink="http://www.w3.org/1999/xlink" x="0px" y="0px"
	 viewBox="0 0 128 128" style="enable-background:new 0 0 128 128;" xml:space="preserve">
<style type="text/css">
	.st0{fill:#222222;}
</style>
<g id="XMLID_24_">
	<g id="XMLID_25_">
		<path id="XMLID_26_" class="st0" d="M123.3,0h0.6c1.8,0.9,3.3,2.3,4.2,4.1v0.1c-0.4,1.8-0.9,3.5-1.3,5.3
			c-6.4,38.2-12.7,76.4-19.1,114.5c-0.1,2.1-2.1,3.1-3.6,4h-0.2c-13.2-5.5-26.4-10.8-39.8-15.9c-4.5,4.8-5.8,12.1-11.4,15.9h-0.9
			c-3-1.3-4.2-4.4-5.7-7c-4-7-8-14-12-21c-10-4-20-8-30-12c-1.8-0.5-3-2.1-4-3.6v-0.8c1-2,2.8-3.5,4.8-4.7
			C44.3,52.7,83.6,26.1,123.3,0z M95.5,37.5C77.3,57,59.1,76.5,40.9,96c3.7,6.4,7.3,12.9,11.1,19.3c21.2-32.9,42.3-65.9,63.5-98.9
			C108.5,23.2,102.3,30.5,95.5,37.5z M12.9,83c8.4,3.3,16.8,6.7,25.2,10.1C60.4,69.4,82.4,45.6,104.7,22
			C73.9,42.1,43.5,62.7,12.9,83z M64.3,103.9c3.1,0.6,5.9,1.9,8.8,3.1c9.2,3.7,18.3,7.3,27.5,11c5-29.3,9.8-58.6,14.7-87.8
			c0.4-2.2,0.6-4.4,0.8-6.6C98.9,50.4,81.5,77.1,64.3,103.9z"/>
	</g>
</g>
</svg>
