<?xml version="1.0" encoding="utf-8"?>
<!-- Generator: Adobe Illustrator 19.0.0, SVG Export Plug-In . SVG Version: 6.00 Build 0)  -->
<svg version="1.1" id="Layer_1" xmlns="http://www.w3.org/2000/svg" xmlns:xlink="http://www.w3.org/1999/xlink" x="0px" y="0px"
	 viewBox="0 0 29.7 17.3" style="enable-background:new 0 0 29.7 17.3;" xml:space="preserve">
<style type="text/css">
	.st0{fill:#555555;}
</style>
<g id="XMLID_207_">
	<path id="XMLID_208_" class="st0" d="M29.4,15.5L27.9,17c-0.2,0.2-0.4,0.3-0.7,0.3c-0.2,0-0.5-0.1-0.7-0.3L14.8,5.3L3.2,17
		c-0.2,0.2-0.4,0.3-0.7,0.3c-0.2,0-0.5-0.1-0.7-0.3l-1.5-1.5C0.1,15.3,0,15.1,0,14.8s0.1-0.5,0.3-0.7L14.2,0.3
		C14.3,0.1,14.6,0,14.8,0c0.2,0,0.5,0.1,0.7,0.3l13.9,13.9c0.2,0.2,0.3,0.4,0.3,0.7S29.6,15.3,29.4,15.5z"/>
</g>
</svg>
